HIERARCHY
ROOT Hips
{
	OFFSET 0.000000 88.474243 0.000000
	CHANNELS 6 Xposition Yposition Zposition Zrotation Yrotation Xrotation 
	JOINT Hips_Spine
	{
		OFFSET 0.000000 0.000000 0.000000
		CHANNELS 3 Zrotation Yrotation Xrotation
		JOINT Spine
		{
			OFFSET 0.005100 8.711998 -0.691000
			CHANNELS 3 Zrotation Yrotation Xrotation
			JOINT Spine1
			{
				OFFSET -0.009200 8.660301 -1.275000
				CHANNELS 3 Zrotation Yrotation Xrotation
				JOINT Spine2
				{
					OFFSET 0.006300 9.852501 -1.857000
					CHANNELS 3 Zrotation Yrotation Xrotation
					JOINT Spine2_Neck
					{
						OFFSET 0.000000 0.000000 0.000000
						CHANNELS 3 Zrotation Yrotation Xrotation
						JOINT Neck
						{
							OFFSET 0.016300 11.420799 -0.263300
							CHANNELS 3 Zrotation Yrotation Xrotation
							End Site #name: Head
							{
								OFFSET -0.019200 9.262405 2.362500
							}
						}
					}
					JOINT Spine2_LeftShoulder
					{
						OFFSET 0.000000 0.000000 0.000000
						CHANNELS 3 Zrotation Yrotation Xrotation
						JOINT LeftShoulder
						{
							OFFSET 5.616900 6.732201 -0.345700
							CHANNELS 3 Zrotation Yrotation Xrotation
							JOINT LeftArm
							{
								OFFSET 10.664888 -0.183372 -2.440700
								CHANNELS 3 Zrotation Yrotation Xrotation
								JOINT LeftForeArm
								{
									OFFSET 27.459126 0.000000 0.000000
									CHANNELS 3 Zrotation Yrotation Xrotation
									End Site #name: LeftHand
									{
										OFFSET 21.306858 0.000000 0.000000
									}
								}
							}
						}
					}
					JOINT Spine2_RightShoulder
					{
						OFFSET 0.000000 0.000000 0.000000
						CHANNELS 3 Zrotation Yrotation Xrotation
						JOINT RightShoulder
						{
							OFFSET -5.580300 6.737503 -0.344400
							CHANNELS 3 Zrotation Yrotation Xrotation
							JOINT RightArm
							{
								OFFSET -10.679335 -0.188484 -2.383900
								CHANNELS 3 Zrotation Yrotation Xrotation
								JOINT RightForeArm
								{
									OFFSET -27.503529 0.000000 0.000000
									CHANNELS 3 Zrotation Yrotation Xrotation
									End Site #name: RightHand
									{
										OFFSET -21.306808 0.000000 0.000000
									}
								}
							}
						}
					}
				}
			}
		}
	}
	JOINT Hips_LeftUpLeg
	{
		OFFSET 0.000000 0.000000 0.000000
		CHANNELS 3 Zrotation Yrotation Xrotation
		JOINT LeftUpLeg
		{
			OFFSET 6.857700 -6.739601 0.312100
			CHANNELS 3 Zrotation Yrotation Xrotation
			JOINT LeftLeg
			{
				OFFSET -0.367590 -34.731552 -4.572400
				CHANNELS 3 Zrotation Yrotation Xrotation
				End Site #name: LeftFoot
				{
					OFFSET 0.367590 -34.656704 -6.067400
				}
			}
		}
	}
	JOINT Hips_RightUpLeg
	{
		OFFSET 0.000000 0.000000 0.000000
		CHANNELS 3 Zrotation Yrotation Xrotation
		JOINT RightUpLeg
		{
			OFFSET -6.876100 -6.733299 0.301000
			CHANNELS 3 Zrotation Yrotation Xrotation
			JOINT RightLeg
			{
				OFFSET 0.347353 -34.795158 -4.515900
				CHANNELS 3 Zrotation Yrotation Xrotation
				End Site #name: RightFoot
				{
					OFFSET -0.347353 -34.589367 -6.070300
				}
			}
		}
	}
}
MOTION
Frames: 12
Frame Time: 0.041667
-0.360083 0.122785 -1.442387 -3.268512 1.815703 -1.598555 -0.000000 0.000000 0.000000 2.655228 0.220966 20.275456 0.046809 0.345375 2.776246 0.000000 0.000000 0.000000 0.243240 0.326766 1.887133 1.710662 -0.298182 9.319361 0.339193 0.382293 2.133149 -5.867444 2.181845 -1.322872 -65.764309 -0.973841 9.968668 0.042534 -49.073408 0.957958 0.130049 0.513943 2.549347 4.601598 -6.739173 0.255778 69.496739 9.002138 4.806879 179.591492 75.578168 179.611325 -0.000000 0.000000 0.000000 7.244559 8.944604 -69.956426 5.142844 -5.031153 63.596740 0.000000 0.000000 0.000000 -5.931833 -7.860165 -64.984965 -0.118067 -0.496240 69.105182 
-0.368636 0.125782 -1.481015 -3.262132 1.805849 -1.599519 -0.000000 0.000000 0.000000 2.665945 0.230478 20.279269 0.054528 0.345632 2.787200 0.000000 0.000000 0.000000 0.253334 0.326533 1.903160 1.715985 -0.297117 9.302432 0.351243 0.382227 2.144501 -5.868338 2.147283 -1.320330 -65.758523 -0.986295 9.862593 0.046484 -48.642280 0.950982 0.136613 0.517498 2.576811 4.636436 -6.658105 0.240959 69.536156 9.246894 5.146932 179.586893 76.255430 179.604505 -0.000000 0.000000 0.000000 7.243385 8.944070 -69.953724 5.151101 -5.029913 63.587475 0.000000 0.000000 0.000000 -5.928837 -7.862496 -64.973240 -0.118006 -0.496749 69.103427 
-0.376449 0.128300 -1.519279 -3.256722 1.796663 -1.602073 -0.000000 0.000000 0.000000 2.679402 0.238094 20.280015 0.063940 0.345932 2.798145 0.000000 0.000000 0.000000 0.265343 0.326670 1.921415 1.719138 -0.294800 9.278305 0.365388 0.382760 2.157145 -5.874499 2.096409 -1.312626 -65.741039 -1.018973 9.726892 0.051329 -48.049161 0.944325 0.144848 0.522121 2.614963 4.685588 -6.594315 0.236905 69.549585 9.530433 5.535586 179.577060 77.081834 179.591994 -0.000000 0.000000 0.000000 7.241942 8.945942 -69.949619 5.160732 -5.028932 63.573907 0.000000 0.000000 0.000000 -5.926390 -7.863316 -64.961799 -0.118452 -0.499930 69.098722 
-0.383429 0.130424 -1.557251 -3.251930 1.785145 -1.602292 -0.000000 0.000000 0.000000 2.696306 0.247644 20.273953 0.075244 0.346107 2.808848 0.000000 0.000000 0.000000 0.279222 0.327177 1.940145 1.723325 -0.289540 9.245339 0.382151 0.383601 2.172494 -5.886484 2.022153 -1.300640 -65.719421 -1.052854 9.594453 0.058527 -47.350712 0.933784 0.154744 0.526534 2.650419 4.744212 -6.549329 0.223657 69.562786 9.898040 5.969772 179.548280 78.195157 179.563301 -0.000000 0.000000 0.000000 7.241485 8.949929 -69.950549 5.169614 -5.027791 63.569669 0.000000 0.000000 0.000000 -5.924871 -7.864909 -64.951695 -0.116802 -0.500744 69.094420 
-0.389505 0.132238 -1.594973 -3.249325 1.774481 -1.601420 -0.000000 0.000000 0.000000 2.714277 0.258753 20.264226 0.087179 0.346366 2.820992 0.000000 0.000000 0.000000 0.294808 0.327932 1.961024 1.725879 -0.283495 9.205793 0.400159 0.384885 2.185943 -5.906948 1.932021 -1.285088 -65.688465 -1.078994 9.447241 0.065688 -46.567053 0.924616 0.164831 0.531483 2.691256 4.883128 -6.546117 0.220011 69.590684 10.413031 6.483433 179.484128 79.576482 179.501387 -0.000000 0.000000 0.000000 7.241651 8.953595 -69.951125 5.179355 -5.026330 63.566429 0.000000 0.000000 0.000000 -5.921039 -7.866876 -64.945053 -0.116157 -0.502881 69.090180 
-0.394675 0.133790 -1.632508 -3.248248 1.764782 -1.601356 -0.000000 0.000000 0.000000 2.735073 0.273885 20.254693 0.100087 0.346264 2.833977 0.000000 0.000000 0.000000 0.311800 0.329190 1.983085 1.727217 -0.275114 9.161286 0.420536 0.386401 2.203451 -5.929558 1.841242 -1.268514 -65.652715 -1.111389 9.264369 0.072357 -45.689907 0.914304 0.175753 0.536390 2.733491 5.070237 -6.557669 0.216713 69.615776 10.982260 7.059421 179.340628 81.412274 179.367873 -0.000000 0.000000 0.000000 7.242570 8.959862 -69.949115 5.189131 -5.023917 63.560336 0.000000 0.000000 0.000000 -5.916275 -7.869542 -64.936624 -0.115842 -0.504741 69.084956 
-0.398922 0.135166 -1.669882 -3.248246 1.755997 -1.601068 -0.000000 -0.000000 0.000000 2.755274 0.289836 20.238009 0.113854 0.346925 2.848529 0.000000 0.000000 0.000000 0.329809 0.330791 2.007738 1.729035 -0.265625 9.117504 0.441889 0.388390 2.221582 -5.954889 1.736239 -1.249417 -65.617876 -1.140364 9.094907 0.082379 -44.702736 0.901584 0.187235 0.541658 2.777840 5.275794 -6.574468 0.213185 69.685385 11.621565 7.653218 179.084533 83.349670 179.125192 -0.000000 0.000000 0.000000 7.244176 8.965076 -69.941338 5.199566 -5.021361 63.548746 0.000000 0.000000 0.000000 -5.914049 -7.869156 -64.926545 -0.114760 -0.506523 69.077274 
-0.402263 0.136338 -1.707078 -3.249632 1.747466 -1.599899 -0.000000 -0.000000 0.000000 2.775963 0.309258 20.218788 0.128526 0.347008 2.866775 0.000000 0.000000 0.000000 0.351806 0.332017 2.036903 1.730164 -0.253878 9.066688 0.464201 0.390886 2.243210 -5.978765 1.618823 -1.226057 -65.577091 -1.184442 8.935091 0.090103 -43.669925 0.890859 0.199802 0.547215 2.824666 5.503157 -6.595606 0.208030 69.864118 12.265628 8.342402 178.590978 85.432534 178.640831 -0.000000 0.000000 0.000000 7.243171 8.969114 -69.936994 5.209364 -5.017042 63.540083 0.000000 0.000000 0.000000 -5.908224 -7.866646 -64.918871 -0.115773 -0.508019 69.066370 
-0.404597 0.137463 -1.744205 -3.252733 1.739924 -1.595793 -0.000000 -0.000000 0.000000 2.799086 0.333546 20.194209 0.144517 0.347895 2.885069 0.000000 0.000000 0.000000 0.376031 0.333026 2.067895 1.729741 -0.243557 9.015559 0.488728 0.394798 2.265096 -6.015541 1.502337 -1.202898 -65.541409 -1.232806 8.759100 0.099651 -42.597568 0.880242 0.213828 0.554298 2.855413 5.754858 -6.599186 0.199852 70.242573 12.852847 9.063298 177.069225 87.693145 177.130967 -0.000000 0.000000 0.000000 7.242479 8.974024 -69.935624 5.221764 -5.011612 63.527910 0.000000 0.000000 0.000000 -5.906952 -7.867192 -64.906988 -0.115084 -0.511091 69.053474 
-0.406004 0.138519 -1.781261 -3.257267 1.734714 -1.591589 -0.000000 -0.000000 0.000000 2.823004 0.359254 20.167916 0.161096 0.349592 2.904562 0.000000 0.000000 0.000000 0.401106 0.334936 2.101319 1.728286 -0.232419 8.962053 0.509827 0.398356 2.292294 -6.048974 1.383848 -1.179598 -65.499147 -1.271109 8.562569 0.107370 -41.489718 0.871133 0.228451 0.562713 2.886163 6.028737 -6.566132 0.191166 70.608401 13.280525 9.725212 47.697297 89.831487 47.773029 -0.000000 0.000000 0.000000 7.241009 8.982042 -69.940353 5.236400 -5.003155 63.519365 0.000000 0.000000 0.000000 -5.903212 -7.866086 -64.900617 -0.114783 -0.511810 69.043830 
-0.406476 0.139658 -1.818294 -3.261474 1.729024 -1.586657 -0.000000 -0.000000 0.000000 2.845619 0.388183 20.136045 0.178216 0.350670 2.926538 0.000000 0.000000 0.000000 0.425805 0.337870 2.134525 1.726226 -0.218751 8.905777 0.529157 0.401584 2.320455 -6.087089 1.266298 -1.156811 -65.459196 -1.311575 8.388358 0.116313 -40.342073 0.862175 0.255928 0.563238 2.921021 6.292139 -6.506575 0.180186 70.966349 13.675830 10.367981 2.789752 87.381413 2.880568 -0.000000 -0.000000 0.000000 7.238190 8.990411 -69.945634 5.251176 -4.995497 63.516932 0.000000 0.000000 0.000000 -5.901840 -7.864757 -64.893035 -0.115433 -0.514558 69.030703 
-0.406060 0.140919 -1.855412 -3.268227 1.725515 -1.579610 -0.000000 -0.000000 0.000000 2.868642 0.421558 20.101739 0.194841 0.352173 2.948425 0.000000 0.000000 0.000000 0.449080 0.341387 2.165720 1.728015 -0.206135 8.851714 0.548345 0.405812 2.347256 -6.134670 1.144177 -1.132055 -65.425353 -1.374206 8.221121 0.123825 -39.162555 0.853452 0.282388 0.562839 2.952469 6.519141 -6.433823 0.167022 71.205976 13.972393 11.026685 1.405721 84.775313 1.512104 -0.000000 -0.000000 0.000000 7.235772 8.999319 -69.959120 5.270707 -4.984027 63.520924 0.000000 0.000000 0.000000 -5.899753 -7.863454 -64.890711 -0.117182 -0.517117 69.020499 
